<svg height="512" viewBox="0 0 64 64" width="512" xmlns="http://www.w3.org/2000/svg"><g id="Administrator-Worker-Setting-Computer-Laptop"><path d="m43 49.35v11.65h-40v-11.65a9.989 9.989 0 0 1 7.02-9.54l6.77-2.12-.79 6.31 7-3 7 3-.79-6.31 6.77 2.12c.01 0 .01 0 .02.01a9.966 9.966 0 0 1 6.99 9.18c.01.11.01.23.01.35z" fill="#3d9ae2"/><path d="m56 34h-18a2.006 2.006 0 0 0 -2 2v13h22v-13a2.006 2.006 0 0 0 -2-2z" fill="#5aaae7"/><path d="m61 57h-28l3-8h22z" fill="#acabb1"/><path d="m27 32v5l-4 4-4-4v-5z" fill="#ffc477"/><path d="m55.36 35.95-1.41 1.41-1.95-1.17a6.159 6.159 0 0 1 -1.45.6l-.55 2.21h-2l-.55-2.21a6.159 6.159 0 0 1 -1.45-.6l-1.95 1.17-1.41-1.41 1.17-1.95h10.38z" fill="#3d9ae2"/><path d="m52.79 30.55a6.159 6.159 0 0 1 -.6 1.45l1.17 1.95-1.41 1.41-1.95-1.17a6.159 6.159 0 0 1 -1.45.6l-.55 2.21h-2l-.55-2.21a6.159 6.159 0 0 1 -1.45-.6l-1.95 1.17-1.41-1.41 1.17-1.95a6.159 6.159 0 0 1 -.6-1.45l-2.21-.55v-2l2.21-.55a6.159 6.159 0 0 1 .6-1.45l-1.17-1.95 1.41-1.41 1.95 1.17a6.159 6.159 0 0 1 1.45-.6l.55-2.21h2l.55 2.21a6.159 6.159 0 0 1 1.45.6l1.95-1.17 1.41 1.41-1.17 1.95a6.159 6.159 0 0 1 .6 1.45l2.21.55v2z" fill="#ff9811"/><path d="m61 57v3a1 1 0 0 1 -1 1h-26a1 1 0 0 1 -1-1v-3z" fill="#898890"/><path d="m52 57h-10l1-3h8z" fill="#c6c5ca"/><path d="m34 17a2 2 0 1 1 -1 3.73v-3.46a2 2 0 0 1 1-.27z" fill="#ffb655"/><path d="m13 18v2.73a2 2 0 1 1 0-3.46z" fill="#ffb655"/><path d="m29.21 37.69.79 6.31-7-3 4-4z" fill="#e6e7e8"/><path d="m27 32v2.16a9.944 9.944 0 0 1 -8 0v-2.16z" fill="#ffb655"/><path d="m33 20.73v2.27a10 10 0 0 1 -20 0v-5s5-5 9-6c0 0 1 3 3 4a3.7 3.7 0 0 1 3-2 6.889 6.889 0 0 0 5 4z" fill="#ffc477"/><path d="m23 41-7 3 .79-6.31 2.21-.69z" fill="#e6e7e8"/><path d="m33 17.27v.73a6.889 6.889 0 0 1 -5-4 3.7 3.7 0 0 0 -3 2c-2-1-3-4-3-4-4 1-9 6-9 6v-5a10 10 0 0 1 20 0z" fill="#57565c"/><circle cx="47" cy="29" fill="#ffd422" r="3"/><path d="m58 39.15v9.85h-9.79a23.577 23.577 0 0 0 9.79-9.85z" fill="#3d9ae2"/><path d="m17 19h2v2h-2z" fill="#ee8700"/><path d="m27 19h2v2h-2z" fill="#ee8700"/><path d="m23 29a4 4 0 0 1 -4-4h2a2 2 0 0 0 4 0h2a4 4 0 0 1 -4 4z" fill="#ee8700"/><path d="m9 49h2v12h-2z" fill="#1e81ce"/><g fill="#3d9ae2"><path d="m46 40h2v2h-2z"/><path d="m50 40h2v2h-2z"/><path d="m42 40h2v2h-2z"/></g></g></svg>