<?xml version="1.0" encoding="UTF-8"?>
<svg xmlns="http://www.w3.org/2000/svg" xmlns:xlink="http://www.w3.org/1999/xlink" width="250pt" height="250pt" viewBox="0 0 250 250" version="1.1">
<g id="surface1">
<path style=" stroke:none;fill-rule:nonzero;fill:rgb(89.411765%,72.941176%,25.882353%);fill-opacity:1;" d="M 250 125 C 250 141.285156 246.886719 156.84375 241.21875 171.113281 C 238.1875 178.746094 234.429688 186.011719 230.019531 192.816406 C 224.53125 201.304688 218.035156 209.085938 210.710938 215.984375 C 206.417969 220.03125 201.847656 223.769531 197.019531 227.179688 C 176.664062 241.554688 151.820312 250 125 250 C 98.179688 250 73.335938 241.554688 52.980469 227.179688 C 46.9375 222.914062 41.296875 218.132812 36.117188 212.886719 C 13.785156 190.3125 0 159.261719 0 125 C 0 90.738281 13.785156 59.6875 36.117188 37.113281 C 41.601562 31.5625 47.605469 26.523438 54.050781 22.078125 C 74.203125 8.152344 98.648438 0 125 0 C 151.351562 0 175.796875 8.152344 195.949219 22.078125 C 200.871094 25.46875 205.535156 29.214844 209.90625 33.269531 C 217.566406 40.351562 224.332031 48.386719 230.019531 57.183594 C 234.429688 63.988281 238.1875 71.253906 241.21875 78.886719 C 246.886719 93.15625 250 108.714844 250 125 Z M 250 125 "/>
<path style=" stroke:none;fill-rule:nonzero;fill:rgb(94.901961%,94.901961%,94.901961%);fill-opacity:1;" d="M 190.941406 113.753906 C 187.464844 103.664062 173.199219 103.664062 170.414062 112.015625 C 167.632812 120.367188 177.027344 125.234375 191.640625 130.109375 C 206.25 134.980469 215.296875 147.851562 213.558594 159.332031 C 211.820312 170.8125 206.949219 185.773438 178.070312 185.773438 C 160.023438 185.773438 149.992188 174.496094 145.007812 166.035156 L 161.371094 156.203125 C 161.371094 156.203125 166.9375 168.03125 177.375 168.03125 C 187.8125 168.03125 191.988281 164.550781 191.988281 156.550781 C 191.988281 146.808594 158.238281 143.328125 153.019531 126.628906 C 147.800781 109.929688 154.757812 86.269531 179.113281 88.007812 C 194.335938 89.09375 202.898438 96.570312 207.179688 102.023438 Z M 190.941406 113.753906 "/>
<path style=" stroke:none;fill-rule:nonzero;fill:rgb(94.901961%,94.901961%,94.901961%);fill-opacity:1;" d="M 115.09375 89.75 C 115.09375 89.75 115.09375 148.546875 115.09375 156.550781 C 115.09375 164.550781 108.136719 168.726562 101.175781 167.335938 C 94.21875 165.945312 91.085938 157.59375 91.085938 157.59375 L 75.082031 168.378906 C 75.082031 168.378906 78.5625 184.382812 100.480469 185.777344 C 122.402344 187.167969 134.925781 173.945312 134.925781 162.8125 C 134.925781 151.679688 134.925781 89.75 134.925781 89.75 Z M 115.09375 89.75 "/>
<path style=" stroke:none;fill-rule:nonzero;fill:rgb(94.901961%,94.901961%,94.901961%);fill-opacity:1;" d="M 36.117188 22.078125 L 36.117188 212.886719 C 41.296875 218.132812 46.9375 222.914062 52.980469 227.179688 L 197.019531 227.179688 C 201.847656 223.769531 206.417969 220.03125 210.710938 215.984375 L 47.3125 215.984375 L 47.3125 33.269531 L 230.019531 33.269531 L 230.019531 192.816406 C 234.429688 186.011719 238.1875 178.746094 241.21875 171.113281 L 241.21875 22.078125 Z M 36.117188 22.078125 "/>
<path style=" stroke:none;fill-rule:nonzero;fill:rgb(24.705882%,29.019608%,26.27451%);fill-opacity:1;" d="M 62.730469 165.597656 C 62.730469 176.550781 53.851562 185.429688 42.898438 185.429688 C 31.945312 185.429688 23.066406 176.550781 23.066406 165.597656 C 23.066406 154.644531 31.945312 145.765625 42.898438 145.765625 C 53.851562 145.765625 62.730469 154.644531 62.730469 165.597656 Z M 62.730469 165.597656 "/>
</g>
</svg>
