<?xml version="1.0" encoding="UTF-8"?>
<svg xmlns="http://www.w3.org/2000/svg" xmlns:xlink="http://www.w3.org/1999/xlink" width="250pt" height="250pt" viewBox="0 0 250 250" version="1.1">
<g id="surface1">
<path style=" stroke:none;fill-rule:nonzero;fill:rgb(100%,100%,100%);fill-opacity:1;" d="M 126.632812 53.800781 C 126.59375 53.414062 126.578125 53.027344 126.578125 52.640625 C 126.578125 46.988281 130.28125 42.390625 134.832031 42.390625 C 139.488281 42.390625 143.136719 46.894531 143.136719 52.640625 C 143.136719 53.945312 142.941406 55.199219 142.574219 56.359375 C 143.941406 54.1875 144.730469 51.460938 144.730469 48.597656 C 144.730469 41.722656 140.335938 36.128906 134.933594 36.128906 C 129.53125 36.128906 125.140625 41.722656 125.140625 48.597656 C 125.140625 50.289062 125.402344 51.941406 125.929688 53.53125 C 126.15625 53.617188 126.390625 53.707031 126.632812 53.800781 Z M 126.632812 53.800781 "/>
<path style=" stroke:none;fill-rule:nonzero;fill:rgb(100%,100%,100%);fill-opacity:1;" d="M 102.25 42.929688 C 102.542969 42.886719 102.8125 42.867188 103.082031 42.867188 C 106.703125 42.867188 109.953125 46.421875 110.804688 51.320312 C 110.890625 51.855469 110.941406 52.390625 110.964844 52.917969 C 111.203125 52.800781 111.441406 52.6875 111.683594 52.582031 C 111.804688 51.734375 111.863281 50.9375 111.863281 50.136719 C 111.863281 43.796875 108.503906 38.441406 104.527344 38.441406 C 101.144531 38.441406 98.292969 42.167969 97.476562 47.207031 C 98.402344 44.910156 100.09375 43.289062 102.25 42.929688 Z M 102.25 42.929688 "/>
<path style=" stroke:none;fill-rule:nonzero;fill:rgb(100%,100%,100%);fill-opacity:1;" d="M 170.453125 170.828125 C 171.367188 166.96875 173.175781 157.109375 171.460938 145.183594 C 169.296875 130.109375 148.085938 83.171875 144.4375 77.933594 C 142.308594 78.230469 136.648438 81.5 132.0625 84.148438 C 126.742188 87.222656 121.238281 90.402344 117.496094 91.484375 C 116.714844 91.703125 115.898438 91.8125 115.058594 91.8125 C 109.589844 91.8125 103.671875 87.191406 99.855469 83.550781 C 99.1875 90.617188 95.421875 99.582031 91.347656 104.191406 C 88.773438 107.140625 86.472656 113.886719 84.25 120.40625 C 82.1875 126.445312 80.058594 132.691406 77.449219 136.808594 C 72.171875 145.03125 69.144531 161.003906 72.984375 170.089844 C 74.84375 174.492188 81.589844 179.691406 87.539062 184.28125 C 94.816406 189.890625 101.101562 194.734375 101.792969 199.621094 C 102.605469 205.398438 99.53125 208.597656 96.460938 210.117188 L 104.253906 219.035156 C 105.457031 219.21875 108.355469 219.566406 112.902344 219.566406 C 118.214844 219.566406 124.117188 219.101562 130.433594 218.183594 C 145.941406 215.886719 156.746094 203.105469 158.882812 200.390625 C 158.890625 196.796875 159.003906 180.800781 160.050781 175.800781 C 160.457031 173.871094 162.023438 170.648438 167.929688 170.648438 C 168.847656 170.648438 169.722656 170.726562 170.453125 170.828125 Z M 170.453125 170.828125 "/>
<path style=" stroke:none;fill-rule:nonzero;fill:rgb(90.196078%,58.823529%,16.078431%);fill-opacity:1;" d="M 102.777344 71.816406 C 103.082031 73 105.773438 76.023438 109.960938 78.769531 C 110.554688 79.152344 111.113281 79.53125 111.636719 79.886719 C 113.957031 81.464844 114.988281 82.113281 116.660156 81.886719 C 119.117188 81.566406 128.171875 76.074219 132.039062 73.730469 L 133 73.148438 C 134.441406 72.269531 135.59375 71.671875 136.515625 71.191406 C 138.347656 70.238281 138.515625 70.082031 138.59375 69.734375 C 138.382812 69.199219 136.675781 67.753906 133.394531 66.628906 C 132.355469 66.253906 130.875 65.664062 129.164062 64.980469 C 125.457031 63.5 120.382812 61.476562 118.324219 61.113281 C 118.238281 61.097656 118.15625 61.089844 118.0625 61.089844 C 116.3125 61.089844 112.773438 63.289062 109.257812 66.558594 C 107.523438 68.121094 104.140625 70.761719 102.777344 71.816406 Z M 102.777344 71.816406 "/>
<path style=" stroke:none;fill-rule:nonzero;fill:rgb(90.196078%,58.823529%,16.078431%);fill-opacity:1;" d="M 71.851562 193.128906 C 70.328125 190.582031 69.011719 188.375 68.300781 187.277344 C 65.5 182.917969 60.636719 178.046875 58.320312 178.046875 C 58.117188 178.046875 58.007812 178.09375 57.9375 178.136719 C 56.703125 178.839844 55.664062 180.984375 54.65625 183.058594 C 53.265625 185.925781 51.691406 189.179688 48.78125 190.941406 C 46.625 192.25 43.335938 192.964844 40.152344 193.65625 C 37.886719 194.148438 32.585938 195.296875 32.339844 196.371094 C 31.996094 197.820312 32.316406 199.316406 32.71875 201.210938 C 33.195312 203.445312 33.792969 206.226562 33.285156 209.640625 C 32.929688 211.785156 32.277344 213.828125 31.648438 215.808594 C 30.773438 218.558594 29.78125 221.683594 30.636719 222.640625 C 31.691406 223.574219 38.0625 224.605469 42.710938 225.355469 C 48.558594 226.304688 54.601562 227.28125 58.304688 228.832031 L 59.285156 229.246094 C 65.914062 232.03125 78.253906 237.21875 84.488281 237.21875 C 85.058594 237.21875 85.539062 237.171875 85.929688 237.085938 C 87.007812 236.363281 91.5625 233.089844 92.417969 229.066406 C 93.585938 223.878906 88.835938 217.832031 85.898438 214.6875 C 82.640625 211.191406 76.40625 200.75 71.851562 193.128906 Z M 71.851562 193.128906 "/>
<path style=" stroke:none;fill-rule:nonzero;fill:rgb(90.196078%,58.823529%,16.078431%);fill-opacity:1;" d="M 212.773438 205.554688 L 212.011719 205.152344 C 206.792969 202.394531 204.050781 194.90625 204.414062 189.261719 C 204.480469 188.222656 204.351562 187.417969 204.140625 186.800781 C 203.179688 188.386719 201.800781 190.386719 200.167969 192.023438 C 197.386719 194.800781 190.605469 197.800781 184.488281 197.800781 C 182.210938 197.800781 180.132812 197.398438 178.3125 196.605469 C 172.210938 193.945312 171.378906 186.3125 171.363281 182.484375 C 171.273438 182.511719 171.1875 182.539062 171.117188 182.574219 C 170.742188 183.894531 171.105469 188.339844 171.347656 191.332031 C 171.476562 192.933594 171.613281 194.589844 171.691406 196.109375 C 172.039062 202.800781 169.90625 214.152344 168.054688 222.5 C 166.300781 230.667969 169.566406 236.398438 173.535156 237.632812 C 173.890625 237.746094 174.292969 237.804688 174.734375 237.804688 C 178.390625 237.804688 184.445312 234.019531 189.796875 228.386719 C 193.597656 224.386719 202.0625 220.066406 209.53125 216.253906 C 213.742188 214.105469 218.09375 211.878906 219.332031 210.75 C 219.605469 210.492188 219.648438 210.351562 219.648438 210.347656 C 219.570312 209.121094 214.632812 206.527344 212.773438 205.554688 Z M 212.773438 205.554688 "/>
<path style=" stroke:none;fill-rule:nonzero;fill:rgb(0%,0%,0%);fill-opacity:1;" d="M 225.132812 200.726562 C 217.800781 197.726562 214.664062 193.742188 214.96875 187.796875 C 215.28125 180.855469 211.34375 175.773438 209.472656 173.765625 C 210.601562 169.453125 213.902344 154.523438 209.476562 141.558594 C 204.71875 127.683594 190.195312 106.488281 175.207031 85.65625 C 169.074219 77.101562 168.78125 67.800781 168.445312 57.03125 C 168.125 46.757812 167.761719 35.117188 162.035156 22.171875 C 155.808594 8.082031 143.308594 0 127.746094 0 C 118.488281 0 108.984375 2.894531 101.671875 7.9375 C 86.699219 18.273438 88.675781 40.808594 89.988281 55.714844 C 90.167969 57.757812 90.335938 59.6875 90.433594 61.332031 C 91.304688 75.9375 90.511719 83.632812 89.476562 85.972656 C 88.804688 87.503906 85.5 91.851562 82 96.460938 C 78.382812 101.226562 74.28125 106.625 70.921875 111.65625 C 66.910156 117.710938 63.671875 126.964844 60.542969 135.914062 C 58.25 142.464844 56.085938 148.648438 53.980469 152.347656 C 49.988281 159.460938 50.980469 166.089844 51.8125 169.15625 C 50.300781 170.207031 48.117188 172.273438 46.273438 176.171875 C 44.042969 180.925781 39.523438 183.480469 30.125 185.285156 C 25.804688 186.171875 22.824219 187.988281 21.269531 190.683594 C 19 194.613281 20.234375 199.546875 21.363281 202.917969 C 23.027344 207.875 21.988281 211.011719 20.105469 216.710938 C 19.667969 218.023438 19.175781 219.515625 18.675781 221.15625 C 17.890625 223.746094 18.175781 226.101562 19.519531 228.15625 C 23.066406 233.585938 33.425781 235.5 44.089844 236.757812 C 50.457031 237.515625 57.425781 240.058594 64.167969 242.523438 C 70.773438 244.9375 77.601562 247.433594 83.808594 248.191406 C 84.75 248.308594 85.6875 248.367188 86.585938 248.367188 C 95.957031 248.367188 100.191406 242.148438 101.535156 239.59375 C 104.902344 238.90625 116.511719 236.707031 128.480469 236.414062 C 140.425781 236.070312 151.988281 238.429688 155.261719 239.164062 C 156.289062 241.132812 159.003906 245.636719 163.332031 247.953125 C 165.710938 249.253906 169.019531 250 172.40625 250 C 172.410156 250 172.40625 250 172.410156 250 C 176.027344 250 182.914062 249.144531 188.363281 243.410156 C 193.800781 237.648438 207.382812 230.292969 217.300781 224.925781 C 219.515625 223.726562 221.585938 222.605469 223.398438 221.59375 C 228.972656 218.503906 232.011719 214.09375 231.738281 209.488281 C 231.511719 205.660156 228.980469 202.304688 225.132812 200.726562 Z M 134.933594 36.128906 C 140.335938 36.128906 144.726562 41.722656 144.726562 48.597656 C 144.726562 51.460938 143.9375 54.1875 142.574219 56.359375 C 142.9375 55.199219 143.132812 53.945312 143.132812 52.640625 C 143.132812 46.894531 139.488281 42.390625 134.832031 42.390625 C 130.28125 42.390625 126.578125 46.988281 126.578125 52.640625 C 126.578125 53.027344 126.597656 53.414062 126.632812 53.800781 C 126.390625 53.707031 126.15625 53.617188 125.925781 53.53125 C 125.402344 51.941406 125.136719 50.289062 125.136719 48.597656 C 125.136719 41.722656 129.53125 36.128906 134.933594 36.128906 Z M 118.324219 61.113281 C 120.382812 61.476562 125.457031 63.503906 129.164062 64.984375 C 130.875 65.667969 132.355469 66.257812 133.394531 66.628906 C 136.675781 67.757812 138.382812 69.199219 138.589844 69.738281 C 138.515625 70.085938 138.347656 70.238281 136.515625 71.191406 C 135.59375 71.671875 134.441406 72.273438 133 73.148438 L 132.039062 73.734375 C 128.171875 76.078125 119.117188 81.570312 116.660156 81.890625 C 114.988281 82.113281 113.957031 81.464844 111.632812 79.890625 C 111.109375 79.53125 110.554688 79.152344 109.960938 78.773438 C 105.773438 76.023438 103.082031 73 102.777344 71.820312 C 104.140625 70.765625 107.523438 68.125 109.257812 66.558594 C 112.773438 63.289062 116.308594 61.09375 118.058594 61.09375 C 118.152344 61.09375 118.238281 61.097656 118.324219 61.113281 Z M 104.527344 38.4375 C 108.503906 38.4375 111.859375 43.796875 111.859375 50.136719 C 111.859375 50.9375 111.804688 51.730469 111.683594 52.582031 C 111.441406 52.683594 111.199219 52.796875 110.964844 52.917969 C 110.941406 52.386719 110.886719 51.855469 110.800781 51.316406 C 109.953125 46.417969 106.703125 42.863281 103.082031 42.863281 C 102.8125 42.863281 102.542969 42.886719 102.246094 42.929688 C 100.09375 43.289062 98.402344 44.90625 97.476562 47.203125 C 98.289062 42.167969 101.144531 38.4375 104.527344 38.4375 Z M 92.417969 229.066406 C 91.5625 233.089844 87.003906 236.363281 85.929688 237.085938 C 85.539062 237.171875 85.058594 237.21875 84.488281 237.21875 C 78.253906 237.21875 65.914062 232.03125 59.285156 229.246094 L 58.304688 228.832031 C 54.601562 227.28125 48.554688 226.304688 42.710938 225.355469 C 38.058594 224.605469 31.691406 223.574219 30.636719 222.640625 C 29.78125 221.679688 30.773438 218.558594 31.648438 215.808594 C 32.277344 213.828125 32.929688 211.785156 33.285156 209.640625 C 33.792969 206.226562 33.195312 203.445312 32.71875 201.210938 C 32.316406 199.316406 31.996094 197.820312 32.339844 196.371094 C 32.585938 195.296875 37.886719 194.148438 40.152344 193.65625 C 43.335938 192.964844 46.628906 192.25 48.78125 190.941406 C 51.691406 189.179688 53.265625 185.929688 54.65625 183.058594 C 55.664062 180.984375 56.703125 178.839844 57.9375 178.136719 C 58.007812 178.09375 58.117188 178.046875 58.320312 178.046875 C 60.636719 178.046875 65.5 182.917969 68.300781 187.277344 C 69.011719 188.375 70.328125 190.578125 71.851562 193.128906 C 76.40625 200.75 82.640625 211.191406 85.898438 214.6875 C 88.835938 217.832031 93.585938 223.878906 92.417969 229.066406 Z M 160.050781 175.796875 C 159.003906 180.800781 158.894531 196.796875 158.882812 200.390625 C 156.746094 203.105469 145.941406 215.886719 130.433594 218.183594 C 124.117188 219.101562 118.21875 219.566406 112.902344 219.566406 C 108.355469 219.566406 105.457031 219.214844 104.253906 219.035156 L 96.460938 210.117188 C 99.53125 208.597656 102.605469 205.398438 101.796875 199.621094 C 101.101562 194.734375 94.816406 189.890625 87.539062 184.277344 C 81.589844 179.691406 74.84375 174.492188 72.984375 170.089844 C 69.144531 161.003906 72.171875 145.03125 77.449219 136.808594 C 80.058594 132.691406 82.1875 126.445312 84.25 120.40625 C 86.472656 113.882812 88.773438 107.140625 91.347656 104.191406 C 95.421875 99.582031 99.1875 90.617188 99.855469 83.550781 C 103.671875 87.191406 109.589844 91.8125 115.058594 91.8125 C 115.898438 91.8125 116.71875 91.703125 117.496094 91.484375 C 121.238281 90.402344 126.742188 87.222656 132.0625 84.148438 C 136.648438 81.5 142.308594 78.230469 144.4375 77.933594 C 148.085938 83.171875 169.296875 130.109375 171.460938 145.179688 C 173.175781 157.109375 171.367188 166.964844 170.457031 170.828125 C 169.722656 170.726562 168.847656 170.648438 167.929688 170.648438 C 162.023438 170.648438 160.457031 173.871094 160.050781 175.796875 Z M 219.332031 210.75 C 218.09375 211.882812 213.742188 214.105469 209.53125 216.253906 C 202.0625 220.066406 193.597656 224.390625 189.796875 228.390625 C 184.445312 234.023438 178.390625 237.804688 174.734375 237.804688 C 174.296875 237.804688 173.894531 237.75 173.539062 237.636719 C 169.570312 236.398438 166.300781 230.671875 168.058594 222.5 C 169.90625 214.15625 172.039062 202.804688 171.691406 196.109375 C 171.613281 194.589844 171.480469 192.933594 171.347656 191.335938 C 171.105469 188.34375 170.742188 183.898438 171.117188 182.578125 C 171.191406 182.542969 171.273438 182.511719 171.363281 182.488281 C 171.378906 186.3125 172.210938 193.945312 178.3125 196.609375 C 180.132812 197.402344 182.210938 197.804688 184.492188 197.804688 C 190.605469 197.804688 197.390625 194.804688 200.167969 192.023438 C 201.804688 190.390625 203.179688 188.386719 204.144531 186.800781 C 204.355469 187.417969 204.484375 188.226562 204.414062 189.265625 C 204.050781 194.910156 206.796875 202.394531 212.015625 205.15625 L 212.773438 205.554688 C 214.632812 206.527344 219.570312 209.121094 219.652344 210.351562 C 219.648438 210.351562 219.609375 210.496094 219.332031 210.75 Z M 219.332031 210.75 "/>
</g>
</svg>
