<svg height="512" viewBox="0 0 128 128" width="512" xmlns="http://www.w3.org/2000/svg"><circle cx="64" cy="64" fill="#aad2ff" r="54.102"/><path d="m31.147 52.4a21.234 21.234 0 0 0 12.385-38.5 54.265 54.265 0 0 0 -29.632 29.634 21.227 21.227 0 0 0 17.247 8.866z" fill="#96bef0"/><path d="m75.6 31.147a21.236 21.236 0 0 0 38.5 12.387 54.269 54.269 0 0 0 -29.634-29.634 21.227 21.227 0 0 0 -8.866 17.247z" fill="#96bef0"/><path d="m52.4 96.853a21.235 21.235 0 0 0 -38.5-12.386 54.271 54.271 0 0 0 29.635 29.633 21.227 21.227 0 0 0 8.865-17.247z" fill="#96bef0"/><path d="m96.853 75.6a21.233 21.233 0 0 0 -12.384 38.5 54.262 54.262 0 0 0 29.631-29.634 21.227 21.227 0 0 0 -17.247-8.866z" fill="#96bef0"/><circle cx="25.744" cy="25.744" fill="#e678a0" r="24.744"/><circle cx="27.744" cy="27.744" fill="#d2648c" r="15"/><circle cx="102.256" cy="25.744" fill="#b4aaf0" r="24.744"/><circle cx="64" cy="64" fill="#ffe885" r="20"/><circle cx="25.744" cy="102.256" fill="#b4aaf0" r="24.744"/><circle cx="102.256" cy="102.256" fill="#e678a0" r="24.744"/><path d="m20.591 109.977v5.152a2.576 2.576 0 0 0 2.576 2.576h5.153a2.576 2.576 0 0 0 2.58-2.575v-5.152z" fill="#e678a0"/><path d="m32.551 89.359a10.305 10.305 0 0 0 -14.767 14.282 13.677 13.677 0 0 1 1.887 2.876 8.624 8.624 0 0 1 .921 3.46h10.308a8.624 8.624 0 0 1 .921-3.46 13.677 13.677 0 0 1 1.887-2.876 10.307 10.307 0 0 0 -1.157-14.282z" fill="#f0dc78"/><path d="m23.173 115.13v-5.152h-2.582v5.152a2.576 2.576 0 0 0 2.576 2.576h2.581a2.576 2.576 0 0 1 -2.575-2.576z" fill="#fa8cb4"/><path d="m20.365 103.641a10.307 10.307 0 0 1 1.153-14.282 10.2 10.2 0 0 1 5.516-2.459 10.283 10.283 0 0 0 -9.251 16.745 13.677 13.677 0 0 1 1.887 2.876 8.624 8.624 0 0 1 .921 3.46h2.581a8.624 8.624 0 0 0 -.921-3.46 13.677 13.677 0 0 0 -1.886-2.88z" fill="#fffa96"/><circle cx="25.744" cy="25.744" fill="#f0dc78" r="15"/><circle cx="25.744" cy="25.744" fill="#fffffa" r="11.292"/><path d="m30.227 28.533a3.521 3.521 0 0 1 -1.056 2.52 4.416 4.416 0 0 1 -2.891 1.261v1.5h-1.055v-1.5a4.83 4.83 0 0 1 -2.872-1.066 3.092 3.092 0 0 1 -1.093-2.473h2.26a1.822 1.822 0 0 0 1.7 1.815v-4.076a9.028 9.028 0 0 1 -2.372-.8 2.994 2.994 0 0 1 -1.148-1.036 3.522 3.522 0 0 1 -.44-1.778 3.334 3.334 0 0 1 1.093-2.575 4.688 4.688 0 0 1 2.872-1.147v-1.5h1.056v1.5a4.481 4.481 0 0 1 2.677 1.009 3.468 3.468 0 0 1 1.142 2.435h-2.26a1.794 1.794 0 0 0 -.473-1.056 2 2 0 0 0 -1.083-.612v4a9.626 9.626 0 0 1 2.353.76 3.133 3.133 0 0 1 1.093.945 3.7 3.7 0 0 1 .497 1.874zm-6.327-7.051a1.691 1.691 0 0 0 -.492 1.279 1.571 1.571 0 0 0 .473 1.232 3.46 3.46 0 0 0 1.344.686v-3.779a2.284 2.284 0 0 0 -1.325.582zm3.715 8.45a1.831 1.831 0 0 0 .482-1.279 1.5 1.5 0 0 0 -.473-1.176 3.45 3.45 0 0 0 -1.343-.686v3.8a2.183 2.183 0 0 0 1.334-.659z" fill="#f0dc78"/><path d="m97.666 105.736h-6.334a3.36 3.36 0 0 1 -3.36-3.36v-5.52a3.36 3.36 0 0 1 3.36-3.36h6.334z" fill="#f0dc78"/><path d="m113.172 111.976-10.938-6.24v-12.24l10.938-6.24z" fill="#f0dc78"/><path d="m91.332 93.5a3.36 3.36 0 0 0 -3.36 3.36v3.349a3.36 3.36 0 0 1 3.36-3.36h6.334v-3.349z" fill="#fffa96"/><path d="m102.234 93.496v3.349l10.938-6.24v-3.349z" fill="#fffa96"/><path d="m102.174 117.256a9.28 9.28 0 0 1 -8.642-5.9l-2.2-5.622h6.334z" fill="#b4aaf0"/><path d="m92.394 108.451h6.334l-1.062-2.715h-6.334z" fill="#a99be0"/><path d="m97.666 93.496h4.568v12.24h-4.568z" fill="#f0f0e6"/><path d="m97.666 93.496h4.568v3.349h-4.568z" fill="#fffffa"/><path d="m113.172 94.095v11.043a6.21 6.21 0 0 0 0-11.043z" fill="#b4aaf0"/><path d="m114.018 94.553a6.436 6.436 0 0 1 1.109 3.651 6.207 6.207 0 0 1 -1.955 4.63v2.3a5.829 5.829 0 0 0 3.368-5.521 6.044 6.044 0 0 0 -2.522-5.06z" fill="#a99be0"/><ellipse cx="102.256" cy="36.953" fill="#e678a0" rx="10.383" ry="2.596"/><path d="m102.256 9.549a10.383 10.383 0 0 0 -10.383 10.384c0 10.383 10.383 17.021 10.383 17.021s10.383-6.637 10.383-17.021a10.383 10.383 0 0 0 -10.383-10.384zm0 14.377a3.994 3.994 0 1 1 3.994-3.994 3.995 3.995 0 0 1 -3.994 3.994z" fill="#ffe885"/><g fill="#785ae6"><path d="m118.015 61.927a1 1 0 0 1 -1-.943 53.108 53.108 0 0 0 -2.3-12.713 25.686 25.686 0 0 1 -12.462 3.217 1 1 0 1 1 0-2 23.678 23.678 0 0 0 12.5-3.56 1 1 0 0 1 1.476.531 55.1 55.1 0 0 1 2.779 14.411 1 1 0 0 1 -.941 1.055z"/><path d="m77.513 103.256a1 1 0 0 1 -1-1 25.744 25.744 0 0 1 38.205-22.526 53.1 53.1 0 0 0 2.221-11.551 1 1 0 1 1 1.994.156 55.136 55.136 0 0 1 -2.7 13.206 1 1 0 0 1 -1.476.531 23.742 23.742 0 0 0 -36.246 20.184 1 1 0 0 1 -.998 1z"/><path d="m64 119.1a55 55 0 0 1 -17.541-2.868 1 1 0 0 1 -.531-1.476 23.742 23.742 0 0 0 -20.184-36.243 1 1 0 1 1 0-2 25.744 25.744 0 0 1 22.527 38.205 53.27 53.27 0 0 0 31.459 0 25.689 25.689 0 0 1 -2.132-5.049 1 1 0 0 1 1.916-.576 23.676 23.676 0 0 0 2.559 5.666 1 1 0 0 1 -.531 1.476 55 55 0 0 1 -17.542 2.865z"/><path d="m12.714 82.223a.989.989 0 0 1 -.339-.06 1 1 0 0 1 -.609-.622 55.072 55.072 0 0 1 0-35.082 1 1 0 0 1 1.476-.531 23.742 23.742 0 0 0 36.245-20.184 1 1 0 1 1 2 0 25.744 25.744 0 0 1 -38.2 22.526 53.062 53.062 0 0 0 0 31.459 25.8 25.8 0 0 1 4.113-1.829 1 1 0 0 1 .649 1.893 23.724 23.724 0 0 0 -4.81 2.283 1 1 0 0 1 -.525.147z"/><path d="m95.5 50.554a.978.978 0 0 1 -.273-.038 25.751 25.751 0 0 1 -15.5-37.233 53.286 53.286 0 0 0 -31.459 0 25.656 25.656 0 0 1 2.2 5.294 1 1 0 1 1 -1.921.557 23.657 23.657 0 0 0 -2.625-5.892 1 1 0 0 1 .531-1.476 55.314 55.314 0 0 1 35.082 0 1 1 0 0 1 .531 1.476 23.749 23.749 0 0 0 13.7 35.351 1 1 0 0 1 -.271 1.962z"/><path d="m25.744 51.487a25.744 25.744 0 1 1 24.787-32.72 1 1 0 0 1 -1.926.541 23.763 23.763 0 1 0 .883 6.437 1 1 0 1 1 2 0 25.773 25.773 0 0 1 -25.744 25.742z"/><path d="m102.256 51.487a1 1 0 1 1 0-2 23.713 23.713 0 1 0 -6.485-.9 1 1 0 1 1 -.545 1.924 25.765 25.765 0 1 1 7.03.972z"/><path d="m64 82a1 1 0 0 1 0-2 16.018 16.018 0 0 0 16-16 1 1 0 0 1 1-1h1.974a18.992 18.992 0 0 0 -10.99-16.239l-9.672 5.585a1 1 0 0 1 -1.5-.866v-3.144a15.985 15.985 0 0 0 -5.75 28.929 1 1 0 1 1 -1.12 1.656 17.985 17.985 0 0 1 7.742-32.756 1.012 1.012 0 0 1 .789.241 1 1 0 0 1 .34.751v2.59l8.614-4.974a1 1 0 0 1 .9-.052 20.992 20.992 0 0 1 12.673 19.279 1 1 0 0 1 -1 1h-2.027a18.023 18.023 0 0 1 -17.973 17z"/><path d="m64 88a24 24 0 0 1 -3.188-47.786v-3.693a1 1 0 0 1 1.5-.866l12.953 7.479a1 1 0 0 1 0 1.732l-12.953 7.48a1 1 0 0 1 -1.5-.866v-3.144a15.985 15.985 0 0 0 -5.428 29.141 1 1 0 1 1 -1.084 1.683 17.986 17.986 0 0 1 7.379-33 1.012 1.012 0 0 1 .789.241 1 1 0 0 1 .34.751v2.59l9.957-5.742-9.953-5.747v2.854a1 1 0 0 1 -.906 1 22 22 0 1 0 24.072 22.893h-4a18.023 18.023 0 0 1 -17.978 17 1 1 0 0 1 0-2 16.018 16.018 0 0 0 16-16 1 1 0 0 1 1-1h6a1 1 0 0 1 1 1 24.027 24.027 0 0 1 -24 24z"/><path d="m25.744 128a25.748 25.748 0 0 1 -8.344-50.105 1 1 0 1 1 .647 1.893 23.761 23.761 0 1 0 7.694-1.274 1 1 0 1 1 0-2 25.744 25.744 0 1 1 0 51.487z"/><path d="m102.256 128a25.908 25.908 0 0 1 -24.656-18.332 1 1 0 0 1 1.916-.574 23.763 23.763 0 1 0 -1-6.838 1 1 0 0 1 -2 0 25.744 25.744 0 1 1 25.74 25.744z"/><path d="m28.32 118.706h-5.153a3.581 3.581 0 0 1 -3.576-3.576v-5.152a1 1 0 0 1 1-1h10.309a1 1 0 0 1 1 1v5.152a3.581 3.581 0 0 1 -3.58 3.576zm-6.729-7.729v4.152a1.578 1.578 0 0 0 1.576 1.576h5.153a1.578 1.578 0 0 0 1.58-1.575v-4.152z"/><path d="m30.9 110.978h-10.3a1 1 0 0 1 -1-1 7.586 7.586 0 0 0 -.827-3.038 12.59 12.59 0 0 0 -1.752-2.662 11.305 11.305 0 0 1 16.2-15.668 11.265 11.265 0 0 1 1.263 15.668 12.569 12.569 0 0 0 -1.752 2.663 7.568 7.568 0 0 0 -.827 3.037 1 1 0 0 1 -1.005 1zm-9.386-2h8.467a10.837 10.837 0 0 1 .935-2.885 14.462 14.462 0 0 1 2.021-3.087 9.273 9.273 0 0 0 -1.044-12.9 9.305 9.305 0 0 0 -13.333 12.9 14.462 14.462 0 0 1 2.021 3.087 10.874 10.874 0 0 1 .929 2.885z"/><path d="m25.744 41.744a16 16 0 1 1 16-16 16.018 16.018 0 0 1 -16 16zm0-30a14 14 0 1 0 14 14 14.016 14.016 0 0 0 -14-14z"/><path d="m25.744 38.035a12.292 12.292 0 1 1 12.292-12.291 12.305 12.305 0 0 1 -12.292 12.291zm0-22.583a10.292 10.292 0 1 0 10.292 10.292 10.3 10.3 0 0 0 -10.292-10.292z"/><path d="m97.666 106.736h-6.334a4.365 4.365 0 0 1 -4.359-4.36v-5.52a4.365 4.365 0 0 1 4.359-4.36h6.334a1 1 0 0 1 1 1v12.24a1 1 0 0 1 -1 1zm-6.334-12.236a2.362 2.362 0 0 0 -2.359 2.36v5.52a2.362 2.362 0 0 0 2.359 2.36h5.334v-10.24z"/><path d="m113.172 112.977a1 1 0 0 1 -.5-.132l-10.937-6.24a1 1 0 0 1 -.5-.868v-12.237a1 1 0 0 1 .5-.868l10.938-6.24a1 1 0 0 1 1.5.868v24.721a1 1 0 0 1 -1 1zm-9.937-7.821 8.938 5.1v-21.278l-8.937 5.1z"/><path d="m102.174 118.256a10.218 10.218 0 0 1 -9.573-6.534l-2.201-5.622a1 1 0 0 1 .932-1.364h6.334a1 1 0 0 1 .932.636l4.508 11.52a1 1 0 0 1 -.932 1.364zm-9.374-11.52 1.667 4.257a8.219 8.219 0 0 0 6.191 5.125l-3.672-9.382z"/><path d="m102.234 106.736h-4.568a1 1 0 0 1 -1-1v-12.236a1 1 0 0 1 1-1h4.568a1 1 0 0 1 1 1v12.24a1 1 0 0 1 -1 .996zm-3.568-2h2.568v-10.236h-2.568z"/><path d="m113.172 106.138a1 1 0 0 1 -1-1v-11.043a1 1 0 0 1 1.369-.93 7.2 7.2 0 0 1 0 12.9 1.007 1.007 0 0 1 -.369.073zm1-10.173v7.3a5.556 5.556 0 0 0 0-7.3z"/><path d="m102.256 40.549c-1.165 0-11.383-.1-11.383-3.6 0-2.467 5.141-3.235 8.2-3.475a.993.993 0 0 1 .757.263 26.861 26.861 0 0 0 2.422 1.994 26.842 26.842 0 0 0 2.423-1.994 1 1 0 0 1 .757-.263c3.063.239 8.2 1.008 8.2 3.475.008 3.499-10.211 3.6-11.376 3.6zm-9.294-3.593c.729.631 4.094 1.593 9.294 1.593s8.565-.962 9.295-1.593c-.487-.4-2.295-1.127-5.843-1.447a25.055 25.055 0 0 1 -2.913 2.286 1 1 0 0 1 -1.079 0 25.243 25.243 0 0 1 -2.916-2.286c-3.543.32-5.351 1.048-5.838 1.447z"/><path d="m102.256 37.953a1.006 1.006 0 0 1 -.539-.157c-.442-.283-10.844-7.056-10.844-17.863a11.383 11.383 0 1 1 22.767 0c0 10.808-10.4 17.58-10.846 17.863a1 1 0 0 1 -.538.157zm0-27.4a9.394 9.394 0 0 0 -9.383 9.384c0 8.39 7.312 14.3 9.382 15.8 2.068-1.507 9.385-7.431 9.385-15.8a9.4 9.4 0 0 0 -9.384-9.388zm0 14.377a4.993 4.993 0 1 1 4.994-4.993 5 5 0 0 1 -4.994 4.989zm0-7.986a2.993 2.993 0 1 0 2.994 2.993 3 3 0 0 0 -2.994-2.998z"/><path d="m25.744 114.842h-5.153a1 1 0 1 1 0-2h5.152a1 1 0 0 1 0 2z"/></g></svg>