<?xml version="1.0" encoding="UTF-8"?>
<svg xmlns="http://www.w3.org/2000/svg" xmlns:xlink="http://www.w3.org/1999/xlink" width="100pt" height="100pt" viewBox="0 0 100 100" version="1.1">
<g id="surface1">
<path style=" stroke:none;fill-rule:nonzero;fill:rgb(100%,86.27451%,78.431373%);fill-opacity:1;" d="M 90 50 L 90 36.667969 C 90 31.144531 85.523438 26.667969 80 26.667969 L 55.597656 26.667969 C 54.34375 26.667969 53.332031 27.695312 53.332031 28.949219 C 53.335938 30.480469 53.578125 31.949219 54.023438 33.332031 L 6.796875 33.332031 C 3.0625 33.332031 -0.0664062 36.390625 0 40.125 C 0.0664062 43.746094 3.027344 46.667969 6.667969 46.667969 L 13.332031 46.667969 L 13.332031 86.667969 L 80 86.667969 C 85.523438 86.667969 90 82.191406 90 76.667969 L 97.070312 76.667969 C 98.6875 76.667969 100 75.355469 100 73.738281 L 100 52.929688 C 100 51.3125 98.6875 50 97.070312 50 Z M 90 50 "/>
<path style=" stroke:none;fill-rule:nonzero;fill:rgb(0%,21.176471%,42.745098%);fill-opacity:1;" d="M 64.472656 0 L 22.191406 0 C 17.308594 0 13.332031 3.972656 13.332031 8.859375 L 13.332031 91.140625 C 13.332031 96.023438 17.308594 100 22.191406 100 L 64.472656 100 C 69.359375 100 73.332031 96.023438 73.332031 91.140625 L 73.332031 8.859375 C 73.332031 3.972656 69.359375 0 64.472656 0 Z M 64.472656 0 "/>
<path style=" stroke:none;fill-rule:nonzero;fill:rgb(0.392157%,13.333333%,23.529412%);fill-opacity:1;" d="M 73.332031 91.140625 L 73.332031 8.859375 C 73.332031 3.972656 69.359375 0 64.472656 0 L 43.332031 0 L 43.332031 100 L 64.472656 100 C 69.359375 100 73.332031 96.027344 73.332031 91.140625 Z M 73.332031 91.140625 "/>
<path style=" stroke:none;fill-rule:nonzero;fill:rgb(37.254902%,97.647059%,99.607843%);fill-opacity:1;" d="M 64.128906 5.859375 L 60.78125 5.859375 L 60.78125 9.207031 C 60.78125 14.289062 56.660156 18.410156 51.574219 18.410156 L 35.089844 18.410156 C 30.007812 18.410156 25.886719 14.289062 25.886719 9.207031 L 25.886719 5.859375 L 22.539062 5.859375 C 20.695312 5.859375 19.191406 7.359375 19.191406 9.207031 L 19.191406 90.792969 C 19.191406 92.640625 20.695312 94.140625 22.539062 94.140625 L 64.128906 94.140625 C 65.972656 94.140625 67.472656 92.640625 67.472656 90.792969 L 67.472656 9.207031 C 67.472656 7.359375 65.972656 5.859375 64.128906 5.859375 Z M 64.128906 5.859375 "/>
<path style=" stroke:none;fill-rule:nonzero;fill:rgb(0%,86.666667%,90.588235%);fill-opacity:1;" d="M 67.472656 90.792969 L 67.472656 9.207031 C 67.472656 7.359375 65.972656 5.859375 64.128906 5.859375 L 60.78125 5.859375 L 60.78125 9.207031 C 60.78125 14.289062 56.660156 18.410156 51.574219 18.410156 L 43.332031 18.410156 L 43.332031 94.140625 L 64.128906 94.140625 C 65.972656 94.140625 67.472656 92.640625 67.472656 90.792969 Z M 67.472656 90.792969 "/>
<path style=" stroke:none;fill-rule:nonzero;fill:rgb(100%,77.254902%,73.333333%);fill-opacity:1;" d="M 20 80 C 20 83.683594 17.015625 86.667969 13.332031 86.667969 C 9.652344 86.667969 6.667969 83.683594 6.667969 80 C 6.667969 76.316406 9.652344 73.332031 13.332031 73.332031 C 17.015625 73.332031 20 76.316406 20 80 Z M 20 80 "/>
<path style=" stroke:none;fill-rule:nonzero;fill:rgb(100%,77.254902%,73.333333%);fill-opacity:1;" d="M 21.667969 60 C 25.347656 60 28.332031 57.011719 28.332031 53.332031 C 28.332031 49.652344 25.347656 46.667969 21.667969 46.667969 L 8.332031 46.667969 C 4.652344 46.667969 1.667969 49.652344 1.667969 53.332031 C 1.667969 57.011719 4.652344 60 8.332031 60 L 11.667969 60 C 7.988281 60 5 62.988281 5 66.667969 C 5 70.347656 7.988281 73.332031 11.667969 73.332031 L 21.667969 73.332031 C 25.347656 73.332031 28.332031 70.347656 28.332031 66.667969 C 28.332031 62.988281 25.347656 60 21.667969 60 Z M 21.667969 60 "/>
<path style=" stroke:none;fill-rule:nonzero;fill:rgb(0%,86.666667%,90.588235%);fill-opacity:1;" d="M 49.609375 87.449219 L 37.058594 87.449219 C 35.4375 87.449219 34.128906 86.136719 34.128906 84.519531 C 34.128906 82.898438 35.4375 81.589844 37.058594 81.589844 L 49.609375 81.589844 C 51.226562 81.589844 52.539062 82.898438 52.539062 84.519531 C 52.539062 86.136719 51.226562 87.449219 49.609375 87.449219 Z M 49.609375 87.449219 "/>
<path style=" stroke:none;fill-rule:nonzero;fill:rgb(0%,74.117647%,80.392157%);fill-opacity:1;" d="M 52.539062 84.519531 C 52.539062 82.898438 51.226562 81.589844 49.609375 81.589844 L 43.332031 81.589844 L 43.332031 87.449219 L 49.609375 87.449219 C 51.226562 87.449219 52.539062 86.136719 52.539062 84.519531 Z M 52.539062 84.519531 "/>
<path style=" stroke:none;fill-rule:nonzero;fill:rgb(100%,77.254902%,73.333333%);fill-opacity:1;" d="M 90 45.703125 L 90 36.667969 C 90 31.144531 85.523438 26.667969 80 26.667969 L 55.597656 26.667969 C 54.347656 26.667969 53.332031 27.679688 53.332031 28.933594 C 53.332031 36.875 59.792969 43.332031 67.734375 43.332031 L 73.332031 43.332031 L 73.332031 86.667969 L 80 86.667969 C 85.523438 86.667969 90 82.191406 90 76.667969 L 97.070312 76.667969 C 98.6875 76.667969 100 75.355469 100 73.738281 L 100 48.632812 C 100 47.015625 98.6875 45.703125 97.070312 45.703125 Z M 90 45.703125 "/>
<path style=" stroke:none;fill-rule:nonzero;fill:rgb(100%,67.843137%,67.843137%);fill-opacity:1;" d="M 21.667969 60 L 11.667969 60 C 7.988281 60 5 62.988281 5 66.667969 C 5 70.347656 7.988281 73.332031 11.667969 73.332031 L 21.667969 73.332031 C 25.347656 73.332031 28.332031 70.347656 28.332031 66.667969 C 28.332031 62.988281 25.347656 60 21.667969 60 Z M 21.667969 60 "/>
<path style=" stroke:none;fill-rule:nonzero;fill:rgb(100%,67.843137%,67.843137%);fill-opacity:1;" d="M 73.332031 60 L 73.332031 86.667969 L 80 86.667969 C 85.523438 86.667969 90 82.191406 90 76.667969 L 97.070312 76.667969 C 98.6875 76.667969 100 75.355469 100 73.738281 L 100 60 Z M 73.332031 60 "/>
</g>
</svg>
