<?xml version="1.0" encoding="UTF-8"?>
<svg xmlns="http://www.w3.org/2000/svg" xmlns:xlink="http://www.w3.org/1999/xlink" width="250pt" height="250pt" viewBox="0 0 250 250" version="1.1">
<g id="surface1">
<path style=" stroke:none;fill-rule:nonzero;fill:rgb(100%,75.686275%,2.745098%);fill-opacity:1;" d="M 52.082031 109.375 L 52.082031 145.832031 L 62.5 145.832031 C 72.8125 145.832031 81.980469 150.9375 87.707031 158.75 C 96.042969 150.832031 107.292969 145.832031 119.792969 145.832031 L 130.207031 145.832031 C 142.707031 145.832031 153.957031 150.832031 162.292969 158.75 C 168.019531 150.9375 177.1875 145.832031 187.5 145.832031 C 191.144531 145.832031 194.6875 146.457031 197.917969 147.707031 L 197.917969 109.375 Z M 52.082031 109.375 "/>
<path style=" stroke:none;fill-rule:nonzero;fill:rgb(100%,83.529412%,30.980392%);fill-opacity:1;" d="M 125 135.417969 C 117.53125 135.417969 52.082031 134.6875 52.082031 109.375 L 52.082031 67.707031 L 197.917969 67.707031 L 197.917969 109.375 C 197.917969 134.6875 132.46875 135.417969 125 135.417969 Z M 125 135.417969 "/>
<path style=" stroke:none;fill-rule:nonzero;fill:rgb(100%,75.686275%,2.745098%);fill-opacity:1;" d="M 125 93.75 C 117.53125 93.75 52.082031 93.019531 52.082031 67.707031 L 52.082031 26.042969 L 197.917969 26.042969 L 197.917969 67.707031 C 197.917969 93.019531 132.46875 93.75 125 93.75 Z M 125 93.75 "/>
<path style=" stroke:none;fill-rule:nonzero;fill:rgb(100%,83.529412%,30.980392%);fill-opacity:1;" d="M 125 52.082031 C 117.53125 52.082031 52.082031 51.355469 52.082031 26.042969 C 52.082031 0.730469 117.53125 0 125 0 C 132.46875 0 197.917969 0.730469 197.917969 26.042969 C 197.917969 51.355469 132.46875 52.082031 125 52.082031 Z M 125 52.082031 "/>
<path style=" stroke:none;fill-rule:nonzero;fill:rgb(87.058824%,65.882353%,2.352941%);fill-opacity:1;" d="M 52.082031 109.375 L 52.082031 145.832031 L 62.5 145.832031 C 72.8125 145.832031 81.980469 150.9375 87.707031 158.75 C 96.042969 150.832031 107.292969 145.832031 119.792969 145.832031 L 125 145.832031 L 125 135.417969 C 117.53125 135.417969 52.082031 134.6875 52.082031 109.375 Z M 52.082031 109.375 "/>
<path style=" stroke:none;fill-rule:nonzero;fill:rgb(87.058824%,72.54902%,27.058824%);fill-opacity:1;" d="M 52.082031 67.707031 L 52.082031 109.375 C 52.082031 134.6875 117.53125 135.417969 125 135.417969 L 125 93.75 C 117.53125 93.75 52.082031 93.019531 52.082031 67.707031 Z M 52.082031 67.707031 "/>
<path style=" stroke:none;fill-rule:nonzero;fill:rgb(87.058824%,65.882353%,2.352941%);fill-opacity:1;" d="M 52.082031 26.042969 L 52.082031 67.707031 C 52.082031 93.019531 117.53125 93.75 125 93.75 L 125 52.082031 C 117.53125 52.082031 52.082031 51.355469 52.082031 26.042969 Z M 52.082031 26.042969 "/>
<path style=" stroke:none;fill-rule:nonzero;fill:rgb(87.058824%,72.54902%,27.058824%);fill-opacity:1;" d="M 125 0 C 117.53125 0 52.082031 0.730469 52.082031 26.042969 C 52.082031 51.355469 117.53125 52.082031 125 52.082031 Z M 125 0 "/>
<path style=" stroke:none;fill-rule:nonzero;fill:rgb(12.941176%,58.823529%,95.294118%);fill-opacity:1;" d="M 156.25 192.707031 C 156.25 178.355469 144.574219 166.667969 130.207031 166.667969 L 119.792969 166.667969 C 105.425781 166.667969 93.75 178.355469 93.75 192.707031 L 93.75 223.957031 C 93.75 238.3125 105.425781 250 119.792969 250 L 130.207031 250 C 133.707031 250 137.042969 249.28125 140.09375 248.03125 C 141.84375 249.21875 143.800781 250 145.832031 250 C 148.5 250 151.167969 248.980469 153.199219 246.949219 C 156.792969 243.355469 157.019531 237.894531 154.28125 233.84375 C 155.542969 230.792969 156.25 227.457031 156.25 223.957031 Z M 114.582031 223.957031 L 114.582031 192.707031 C 114.582031 189.832031 116.925781 187.5 119.792969 187.5 L 130.207031 187.5 C 133.074219 187.5 135.417969 189.832031 135.417969 192.707031 L 135.417969 215.15625 C 131.417969 212.800781 126.269531 213.15625 122.84375 216.59375 C 119.417969 220.03125 119.050781 225.175781 121.40625 229.167969 L 119.792969 229.167969 C 116.925781 229.167969 114.582031 226.832031 114.582031 223.957031 Z M 114.582031 223.957031 "/>
<path style=" stroke:none;fill-rule:nonzero;fill:rgb(12.941176%,58.823529%,95.294118%);fill-opacity:1;" d="M 218.75 250 L 187.5 250 C 181.738281 250 177.082031 245.332031 177.082031 239.582031 L 177.082031 177.082031 C 177.082031 171.332031 181.738281 166.667969 187.5 166.667969 C 193.261719 166.667969 197.917969 171.332031 197.917969 177.082031 L 197.917969 229.167969 L 218.75 229.167969 C 224.511719 229.167969 229.167969 233.832031 229.167969 239.582031 C 229.167969 245.332031 224.511719 250 218.75 250 Z M 218.75 250 "/>
<path style=" stroke:none;fill-rule:nonzero;fill:rgb(12.941176%,58.823529%,95.294118%);fill-opacity:1;" d="M 46.875 250 L 31.25 250 C 25.488281 250 20.832031 245.332031 20.832031 239.582031 C 20.832031 233.832031 25.488281 229.167969 31.25 229.167969 L 46.875 229.167969 C 49.738281 229.167969 52.082031 226.832031 52.082031 223.957031 C 52.082031 221.082031 49.738281 218.75 46.875 218.75 C 32.511719 218.75 20.832031 207.0625 20.832031 192.707031 C 20.832031 178.355469 32.511719 166.667969 46.875 166.667969 L 62.5 166.667969 C 68.261719 166.667969 72.917969 171.332031 72.917969 177.082031 C 72.917969 182.832031 68.261719 187.5 62.5 187.5 L 46.875 187.5 C 44.011719 187.5 41.667969 189.832031 41.667969 192.707031 C 41.667969 195.582031 44.011719 197.917969 46.875 197.917969 C 61.238281 197.917969 72.917969 209.605469 72.917969 223.957031 C 72.917969 238.3125 61.238281 250 46.875 250 Z M 46.875 250 "/>
<path style=" stroke:none;fill-rule:nonzero;fill:rgb(11.372549%,51.372549%,83.137255%);fill-opacity:1;" d="M 156.25 208.988281 L 135.417969 208.988281 L 135.417969 215.167969 C 133.730469 214.175781 131.832031 213.65625 129.949219 213.65625 C 127.375 213.65625 124.824219 214.613281 122.832031 216.59375 C 119.40625 220.03125 119.042969 225.175781 121.394531 229.167969 L 119.792969 229.167969 C 116.925781 229.167969 114.582031 226.832031 114.582031 223.957031 L 114.582031 208.988281 L 93.75 208.988281 L 93.75 223.957031 C 93.75 238.3125 105.425781 250 119.792969 250 L 130.207031 250 C 133.707031 250 137.042969 249.28125 140.09375 248.03125 C 141.84375 249.21875 143.800781 250 145.832031 250 C 148.5 250 151.167969 248.980469 153.199219 246.949219 C 156.792969 243.355469 157.019531 237.894531 154.28125 233.84375 C 155.542969 230.792969 156.25 227.457031 156.25 223.957031 Z M 156.25 208.988281 "/>
<path style=" stroke:none;fill-rule:nonzero;fill:rgb(11.372549%,51.372549%,83.137255%);fill-opacity:1;" d="M 197.917969 208.988281 L 177.082031 208.988281 L 177.082031 239.582031 C 177.082031 245.332031 181.738281 250 187.5 250 L 218.75 250 C 224.511719 250 229.167969 245.332031 229.167969 239.582031 C 229.167969 233.832031 224.511719 229.167969 218.75 229.167969 L 197.917969 229.167969 Z M 197.917969 208.988281 "/>
<path style=" stroke:none;fill-rule:nonzero;fill:rgb(11.372549%,51.372549%,83.137255%);fill-opacity:1;" d="M 68.167969 208.988281 L 26.5625 208.988281 C 31.332031 214.9375 38.667969 218.75 46.875 218.75 C 49.738281 218.75 52.082031 221.082031 52.082031 223.957031 C 52.082031 226.832031 49.738281 229.167969 46.875 229.167969 L 31.25 229.167969 C 25.488281 229.167969 20.832031 233.832031 20.832031 239.582031 C 20.832031 245.332031 25.488281 250 31.25 250 L 46.875 250 C 61.238281 250 72.917969 238.3125 72.917969 223.957031 C 72.917969 218.386719 71.15625 213.21875 68.167969 208.988281 Z M 68.167969 208.988281 "/>
</g>
</svg>
