<?xml version="1.0" encoding="UTF-8"?>
<svg xmlns="http://www.w3.org/2000/svg" xmlns:xlink="http://www.w3.org/1999/xlink" width="100pt" height="100pt" viewBox="0 0 100 100" version="1.1">
<g id="surface1">
<path style=" stroke:none;fill-rule:nonzero;fill:rgb(25.098039%,25.882353%,25.882353%);fill-opacity:1;" d="M 83.199219 0 L 77.164062 0 L 77.164062 100 L 83.199219 100 C 86.53125 100 89.234375 97.296875 89.234375 93.964844 L 89.234375 6.035156 C 89.234375 2.703125 86.53125 0 83.199219 0 Z M 83.199219 0 "/>
<path style=" stroke:none;fill-rule:nonzero;fill:rgb(33.72549%,34.901961%,34.901961%);fill-opacity:1;" d="M 77.164062 0 L 16.800781 0 C 13.46875 0 10.765625 2.703125 10.765625 6.035156 L 10.765625 93.964844 C 10.765625 97.296875 13.46875 100 16.800781 100 L 77.164062 100 C 80.496094 100 83.199219 97.296875 83.199219 93.964844 L 83.199219 87.925781 L 65.089844 50 L 83.199219 12.074219 L 83.199219 6.035156 C 83.199219 2.703125 80.496094 0 77.164062 0 Z M 77.164062 0 "/>
<path style=" stroke:none;fill-rule:nonzero;fill:rgb(43.529412%,43.921569%,43.529412%);fill-opacity:1;" d="M 50 95.472656 L 37.925781 95.472656 C 37.09375 95.472656 36.417969 94.796875 36.417969 93.964844 C 36.417969 93.128906 37.09375 92.453125 37.925781 92.453125 L 50 92.453125 C 50.832031 92.453125 51.507812 93.128906 51.507812 93.964844 C 51.507812 94.796875 50.832031 95.472656 50 95.472656 Z M 50 95.472656 "/>
<path style=" stroke:none;fill-rule:nonzero;fill:rgb(29.411765%,53.333333%,83.529412%);fill-opacity:1;" d="M 56.035156 50 L 77.164062 87.925781 L 83.199219 87.925781 L 83.199219 12.074219 L 77.164062 12.074219 Z M 56.035156 50 "/>
<path style=" stroke:none;fill-rule:nonzero;fill:rgb(41.176471%,65.490196%,100%);fill-opacity:1;" d="M 59.785156 12.074219 C 57.945312 13.910156 56.398438 15.457031 56.394531 15.457031 C 54.757812 17.09375 52.496094 18.109375 50 18.109375 C 47.503906 18.109375 45.242188 17.09375 43.597656 15.457031 L 40.214844 12.074219 L 16.800781 12.074219 L 16.800781 87.925781 L 77.164062 87.925781 L 77.164062 12.074219 Z M 59.785156 12.074219 "/>
<path style=" stroke:none;fill-rule:nonzero;fill:rgb(87.058824%,92.54902%,100%);fill-opacity:1;" d="M 53.019531 9.054688 C 53.019531 10.722656 51.667969 12.074219 50 12.074219 C 48.332031 12.074219 46.980469 10.722656 46.980469 9.054688 C 46.980469 7.386719 48.332031 6.035156 50 6.035156 C 51.667969 6.035156 53.019531 7.386719 53.019531 9.054688 Z M 53.019531 9.054688 "/>
<path style=" stroke:none;fill-rule:nonzero;fill:rgb(25.098039%,25.882353%,25.882353%);fill-opacity:1;" d="M 57.546875 93.964844 C 57.546875 94.796875 56.871094 95.472656 56.035156 95.472656 C 55.203125 95.472656 54.527344 94.796875 54.527344 93.964844 C 54.527344 93.128906 55.203125 92.453125 56.035156 92.453125 C 56.871094 92.453125 57.546875 93.128906 57.546875 93.964844 Z M 57.546875 93.964844 "/>
<path style=" stroke:none;fill-rule:nonzero;fill:rgb(25.098039%,25.882353%,25.882353%);fill-opacity:1;" d="M 63.582031 93.964844 C 63.582031 94.796875 62.90625 95.472656 62.074219 95.472656 C 61.238281 95.472656 60.5625 94.796875 60.5625 93.964844 C 60.5625 93.128906 61.238281 92.453125 62.074219 92.453125 C 62.90625 92.453125 63.582031 93.128906 63.582031 93.964844 Z M 63.582031 93.964844 "/>
</g>
</svg>
