<svg id="Layer_1" enable-background="new 0 0 510 510" height="512" viewBox="0 0 510 510" width="512" xmlns="http://www.w3.org/2000/svg"><g><path id="XMLID_1163_" d="m105 60v450h180l15-210-15-240z" fill="#ff884d"/><path id="XMLID_1136_" d="m285 60h180v450h-180z" fill="#ff4d4d"/><path id="XMLID_133_" d="m45 0v450h180l15-210-15-240z" fill="#edf5ff"/><path id="XMLID_194_" d="m225 0h180v450h-180z" fill="#b5dbff"/><path id="XMLID_132_" d="m307.123 171.59-21.213-21.213-15.91 15.91-15.91-15.91-21.213 21.213 15.91 15.91-15.91 15.91 21.213 21.213 15.91-15.91 15.91 15.91 21.213-21.213-15.91-15.91z" fill="#ff4d4d"/><path id="XMLID_193_" d="m105 270h75v30h-75z" fill="#c6ea4b"/><path id="XMLID_192_" d="m105 330h75v30h-75z" fill="#c6ea4b"/><path id="XMLID_191_" d="m270 270h75v30h-75z" fill="#00dc7b"/><path id="XMLID_131_" d="m270 330h75v30h-75z" fill="#00dc7b"/><path id="XMLID_1161_" d="m201.507 90-33.811 56.352-22.541-56.352h-40.155v30h19.845l37.459 93.648 56.189-93.648h6.507l15-15-15-15z" fill="#3b6bab"/><path id="XMLID_1162_" d="m225 90h120v30h-120z" fill="#00467d"/></g></svg>