<?xml version="1.0" encoding="utf-8"?>
<!-- Generator: Adobe Illustrator 18.0.0, SVG Export Plug-In . SVG Version: 6.00 Build 0)  -->
<!DOCTYPE svg PUBLIC "-//W3C//DTD SVG 1.1//EN" "http://www.w3.org/Graphics/SVG/1.1/DTD/svg11.dtd">
<svg version="1.1" id="Layer_1" xmlns="http://www.w3.org/2000/svg" xmlns:xlink="http://www.w3.org/1999/xlink" x="0px" y="0px"
	 viewBox="0 0 1400 1400" enable-background="new 0 0 1400 1400" xml:space="preserve">
<g>
	<rect fill="#FFFFFF" width="1400" height="1400"/>
	<g>
		<g>
			<g>
				<polygon fill="#9E554B" points="1400,1146.9 1400,1075.9 538.9,1075.9 467.9,1146.9 				"/>
				<polygon fill="#9E554B" points="1400,144.8 467.9,144.8 538.9,215.8 1400,215.8 				"/>
				<polygon fill="#BE635A" points="467.9,1146.9 538.9,1075.9 538.9,215.8 467.9,144.8 				"/>
			</g>
			<rect x="538.9" y="215.8" fill="#173152" width="861.1" height="860.1"/>
			<g opacity="0.44">
				<path fill="#3C536E" d="M1096,637.7L1096,637.7c-25.2-25.2-25.2-66,0-91.1l112.5-112.5c25.2-25.2,25.2-66,0-91.1v0
					c-25.2-25.2-66-25.2-91.1,0L801.2,659.1c-25.2,25.2-25.2,66,0,91.1l0,0c25.2,25.2,66,25.2,91.1,0l20.5-20.5
					c25.2-25.2,66-25.2,91.1,0l0,0c25.2,25.2,25.2,66,0,91.1l-20.5,20.5l-52.4,52.4c-25.2,25.2-25.2,66,0,91.1l0,0
					c25.2,25.2,66,25.2,91.1,0l277.2-277.2c25.2-25.2,25.2-66,0-91.1l0,0c-25.2-25.2-66-25.2-91.1,0l-21.1,21.1
					C1162,662.9,1121.2,662.9,1096,637.7z"/>
				<path fill="#3C536E" d="M915.4,476.7l96-96c25.2-25.2,25.2-66,0-91.1l0,0c-25.2-25.2-66-25.2-91.1,0l-96,96
					c-25.2,25.2-25.2,66,0,91.1l0,0C849.4,501.9,890.2,501.9,915.4,476.7z"/>
			</g>
		</g>
		<g>
			<g>
				<path fill="#FFC1B7" d="M720.3,945.3c45.8,9.4,51.1,65.9,36.7,95.9l-51.9-14.6l-6.3-37L720.3,945.3z"/>
				<path fill="#017DD5" d="M705.7,958.4c-46.3,34.7-94.2,67.3-143.5,97.6c-11,36.7-6.7,70.1-1.8,108.1
					c56.6-30.3,112.3-64.5,165.7-101.9C710.9,1030.7,705.7,993.8,705.7,958.4z"/>
				<path fill="#FFBF83" d="M915.9,836.3c12.5-7.1,10.9-26.3,2.8-38.1c-13.4-19.3-39.1-28.1-62.1-23.5c-23,4.6-42.7,21.2-53.5,42
					c-10.8,20.8-9.8,51.5-6.2,74.6c-22.4,19.9-45.5,39.1-69,57.7c6.7,27.5,25.7,52,50.5,64.6c26.8-21.3,52.6-43.6,77.1-66.7
					c25.5,3,52.3-10.2,65.4-32.3C934,892.5,930.8,857.2,915.9,836.3z"/>
				<path fill="#EB633E" d="M727.9,949c-10.5,8.3-21,16.4-31.7,24.5c0,30.2,4.4,61.7,17.5,88.5c22.1-15.5,43.7-31.6,64.8-48.4
					C753.6,1001,734.7,976.5,727.9,949z"/>
				<path fill="#108DE2" d="M757,1041.3c-24.8-25.1-38.4-60.7-36.7-95.9c-18.7,11.2-37.3,23.8-53.5,38.4
					c-9.6,37.1,4.6,79.4,35.5,102.2C723.1,1075.1,740.7,1058.2,757,1041.3z"/>
			</g>
			<path fill="#FFFFFF" d="M958.2,795.6l-109,54.9c-5.4,2.7-7.6,9.3-4.9,14.8s9.3,7.6,14.8,4.9l109-54.9c5.4-2.7,7.6-9.3,4.9-14.8
				C970.2,795.1,963.6,792.9,958.2,795.6z"/>
			<path fill="#FFBF83" d="M868.3,910.7L868.3,910.7c-9-4.5-12.8-15.4-8.3-24.4l22.6-45.9c4.5-9,15.4-12.8,24.4-8.3h0
				c9,4.5,12.8,15.4,8.3,24.4l-22.6,45.9C888.2,911.4,877.3,915.1,868.3,910.7z"/>
		</g>
		<polygon fill="#FFC1B7" points="334.3,718.3 481.7,730 460.8,773 374.7,769 337.3,731.7 		"/>
		<path fill="#108DE2" d="M610.9,1278.5c-15.1-53.2-16.1-109.2-14.9-164.5s4.6-110.7-2.1-165.6s-24.3-109.9-60.2-151.9
			c-35.9-42-92.3-68.9-146.8-59.8l-46.6-6.8L208.2,899l-38.8,387.4L610.9,1278.5z"/>
		<g>
			<path fill="#EB633E" d="M477.2,727.5v-90.3H338.9v74.3C381.8,730.9,430.9,736.5,477.2,727.5z"/>
			<path fill="#FFBF83" d="M338.9,711.6v36.7c14.1,14.1,21.9,21.9,36,36H408h33.1c14.1-14.1,21.9-21.9,36-36v-20.7
				C430.9,736.5,381.8,730.9,338.9,711.6z"/>
		</g>
		<g>
			<g>
				<path fill="#FFBF83" d="M217.3,412.6c-26.5,0-47.9,21.5-47.9,47.9v0c0,26.5,21.5,47.9,47.9,47.9H247v-95.8H217.3z"/>
				<path fill="#EB633E" d="M217.3,481.2c-11.4,0-20.6-9.3-20.6-20.6c0-11.4,9.3-20.6,20.6-20.6h2.4v41.2H217.3z"/>
			</g>
			<g>
				<path fill="#FFBF83" d="M598.8,412.6c26.5,0,47.9,21.5,47.9,47.9v0c0,26.5-21.5,47.9-47.9,47.9H569v-95.8H598.8z"/>
				<path fill="#EB633E" d="M598.8,481.2c11.4,0,20.6-9.3,20.6-20.6c0-11.4-9.3-20.6-20.6-20.6h-2.4v41.2H598.8z"/>
			</g>
			<path fill="#52274C" d="M576.2,415.2v-70.4c0-92.5-75.7-169.6-168.1-169.7c-92.8,0-168.3,75.4-168.3,168.2v75.6
				c0,33.1-2.1,66.2-5.5,99.1c-0.7,7-1,14.1-0.9,21.3c1.7,95.6,79.1,171.5,174.7,171.5c96.4,0,174.6-78.2,174.6-174.7
				c0-5.8-0.3-11.6-0.8-17.3C578.4,484.4,576.2,449.8,576.2,415.2z"/>
			<g>
				<path fill="#FFBF83" d="M408,201.5L408,201.5c-78.3,0-141.8,63.5-141.8,141.8v150c0,0.1,0,0.1,0,0.2c0,11.9,9.8,21.5,21.7,21.5
					h26v0c0-19.3,15.6-34.9,34.9-34.9h122.5c19.3,0,34.9,15.6,34.9,34.9v0h21.8c11.9,0,21.7-9.6,21.7-21.5c0-0.1,0-0.1,0-0.2v-150
					C549.8,265,486.3,201.5,408,201.5z"/>
			</g>
			<path fill="#FFBF83" d="M457.5,582.5h-98.9c-12.9,0-23.3-10.5-23.3-23.3v-20.6c0-12.9,10.5-23.3,23.3-23.3h98.9
				c12.9,0,23.3,10.5,23.3,23.3v20.6C480.8,572,470.3,582.5,457.5,582.5z"/>
			<path fill="#52274C" d="M369.3,333.2h-53.7c-5.3,0-9.6,4.3-9.6,9.6c0,5.3,4.3,9.6,9.6,9.6h53.7c5.3,0,9.6-4.3,9.6-9.6
				C378.9,337.4,374.6,333.2,369.3,333.2z"/>
			<path fill="#52274C" d="M446.7,333.2h53.7c5.3,0,9.6,4.3,9.6,9.6c0,5.3-4.3,9.6-9.6,9.6h-53.7c-5.3,0-9.6-4.3-9.6-9.6
				C437.1,337.4,441.4,333.2,446.7,333.2z"/>
			<circle fill="#361433" cx="342.5" cy="384.6" r="13.2"/>
			<circle fill="#361433" cx="473.5" cy="384.6" r="13.2"/>
			<path fill="#F89E6A" d="M367.8,463.7c7.7,14.3,22.8,24.1,40.2,24.1s32.5-9.8,40.2-24.1H367.8z"/>
			<path fill="#EB633E" d="M340.3,528.4c12.9,24.2,38.4,40.6,67.8,40.6s54.8-16.4,67.8-40.6H340.3z"/>
			<g>
				<path opacity="0.8" fill="#FFFFFF" d="M510.5,402.3h-73.9c-6.9,0-12.4,5.6-12.4,12.4v10.5c-3.8-4.8-9.6-7.9-16-7.9
					c-6.5,0-12.4,3.2-16.2,8.1v-10.7c0-6.9-5.6-12.4-12.4-12.4h-73.9c-6.9,0-12.4,5.6-12.4,12.4v32.7c0,6.9,5.6,12.4,12.4,12.4h73.9
					c6.9,0,12.4-5.6,12.4-12.4v-8.6c0-8.9,7.6-16.1,16.2-16.1c8.6,0,16,7.2,16,16.1v8.6c0,6.9,5.6,12.4,12.4,12.4h73.9
					c6.9,0,12.4-5.6,12.4-12.4v-32.7C522.9,407.9,517.3,402.3,510.5,402.3z"/>
				<polygon fill="#FFFFFF" points="367.8,402.3 351,402.3 310.7,459.9 327.5,459.9 				"/>
				<polygon fill="#FFFFFF" points="379.1,402.3 372.6,402.3 332.3,459.9 338.8,459.9 				"/>
				<polygon fill="#FFFFFF" points="496.4,402.3 479.6,402.3 439.3,459.9 456.1,459.9 				"/>
				<polygon fill="#FFFFFF" points="507.7,402.3 501.3,402.3 461,459.9 467.4,459.9 				"/>
			</g>
		</g>
		<path fill="#017DD5" d="M532,1090.3c13.6-0.1,32.5,3,32.4,16.6c-0.1,8.5-8.5,14.2-16.2,17.8c-37.5,17.5-79.8,21.1-121.1,24.4
			c-52.9,4.3-105.9,8.6-158.8,12.9c-15.2,1.2-31.6,2.2-44.6-5.9c-23.2-14.4-22.6-47.7-19.2-74.8c6.5-52.3,13.6-106.5,41.5-151.2
			c10.8-17.4,28.4-34.4,48.7-31.4c25.4,3.9,35,34.4,44,58.5C367.7,1035.4,448.6,1091,532,1090.3z"/>
		<polygon fill="#EBEBEB" points="437.5,784.3 414.9,820.6 433,851.7 445.7,851.7 456.2,814.4 		"/>
		<path fill="#FFFFFF" d="M433,851.7c0,0-9.9,196.3-25.9,293.3l59.9,59l34-60c12-91-55.3-292.3-55.3-292.3H433z"/>
		<g>
			<path fill="#108DE2" d="M411.1,1129c-42.5,4.2-85.2,5.2-127.9,3.1c-13.6,1.3-27.6,0-40.2-5.2c37.8-129.9,64-265.8,97.2-397
				c-47.8,11.8-101.8,32.8-135,69.2c-30.3,33.3-40.3,79.7-49.1,123.9c-14.3,71.2-28.6,142.4-42.9,213.7c-4.4,21.7-8.6,44.8-0.3,65.4
				c16.6,41.3,71.1,48.6,115.5,48.2c65.1-0.5,130.2-3.8,195.1-9.8C433.6,1203.4,429.8,1162,411.1,1129z"/>
			<path fill="#EB633E" d="M458.5,1131.7c-9.8,1.4-19.7,2.6-29.6,3.5c15.3,26.9,18.4,60.7,10.2,91.1c13-1.2,25.9-2.5,38.9-4
				C480.1,1190.3,477.4,1156.8,458.5,1131.7z"/>
			<path fill="#FFBF83" d="M680.6,1149.6c-3.2-18.5-14.5-35.9-31.1-44.6c-26.9-14.1-59.4-4-88.5,4.6c-33.5,9.9-67.8,17.2-102.4,22.1
				c18.9,25.2,21.6,58.6,19.5,90.6c23.7-2.7,47.3-5.8,70.9-9.3c23.3,18.3,58.5,18,86.2,7.8c5.2,5.3,14.2,3,20.7-0.5
				c6.5-3.5,11.1-9.9,14.6-16.4C679.5,1187.5,683.8,1168.1,680.6,1149.6z"/>
			<g>
				<path fill="#017DD5" d="M363.5,1225.5c-1.6,8.7-3.7,17.3-6.4,25.7c28.1,2.2,56.6-1.7,84.2-7.3c3.8-7.6,6.7-15.6,8.9-23.9
					C421.7,1225.2,392.5,1227,363.5,1225.5z"/>
				<path fill="#108DE2" d="M450.2,1220c8.7-33.1,4.4-69.8-12.8-99.5c-25.8,2.4-52.1,4.3-77.9,6.7c8.3,32,9.9,65.8,4,98.3
					C392.5,1227,421.7,1225.2,450.2,1220z"/>
			</g>
		</g>
		<g>
			<rect x="44.7" y="1260.9" fill="#C06347" width="1310.7" height="51.2"/>
			<rect x="44.7" y="1312.1" fill="#8C453A" width="1310.7" height="28.8"/>
		</g>
		<g>
			<polygon fill="#017DD5" points="334.3,718.3 437.5,784.3 398.5,847 330,745.5 			"/>
			<polygon fill="#017DD5" points="437.5,784.3 470.5,837.5 484.2,755.8 481.7,730 			"/>
		</g>
		<g opacity="0.71">
			<path fill="#FFFFFF" d="M753.4,472.1c-2,4.5-5.4,11.4-10.5,20.6c-4.9,8.9-8.4,15.8-10.5,20.7c1.4,3.6,4.7,5.5,9.8,5.5
				c0.6,0,2.2,0,4.7,0c1.4-0.1,4.6-0.1,9.8,0c4,0,7.4-0.2,10.2-0.5c3.3-0.4,5.3-1.4,6-2.9c0.3-0.5,0.4-1.1,0.4-1.7
				c0-2.6-1.2-4.3-3.6-5c-2.9-0.8-6.7-1.1-11.4-1.1c-6.3,0-10.1,0-11.5-0.1c1.2-3.5,3.2-7.7,6.1-12.8c3.2-5.8,5.4-9.9,6.5-12.5
				c2-4.6,4-9.2,6-13.8c2-5.5,3.1-10.4,3.1-14.5c0-2.7-0.4-5.3-1.1-7.8c-1.2-3.6-3.7-5.4-7.7-5.4c-0.9,0-1.7,0.1-2.7,0.4
				c-7.5,2-13.1,6.4-16.8,13.3c-1.5,2.8-2.3,5.2-2.3,7.3c0,1.7,0.6,3.1,1.7,4.1c3.4,3.2,5.7,4.8,6.9,4.8c0.9,0,1.7-0.4,2.4-1.1
				c0.7-0.7,1-1.5,1-2.4c0-0.7-0.2-1.6-0.7-2.8c-0.5-1.2-0.7-2-0.7-2.4c0-0.4,0.1-0.8,0.3-1.1c1.2-2.1,2.5-4.4,3.9-6.7
				c1.4-2.3,2.6-3.5,3.6-3.5c1.8,0,2.7,1.8,2.7,5.3c0,2.1-0.7,4.8-2,8.1C755.8,466.8,754.6,469.5,753.4,472.1z"/>
			<path fill="#FFFFFF" d="M782.5,523.3c2.8-4.2,5.9-11,9.2-20.4c3.4-9.4,6.5-16.3,9.5-20.7c1.5,1.5,3.1,4.2,4.8,8
				c1.8,4.3,3.2,7.2,4.2,8.5c2,2.6,4.5,4.1,7.7,4.3c0.8,0.1,1.5-0.4,2.3-1.5c0.8-1.1,1.5-1.6,2.2-1.7c-1-4.2-3.4-9.3-7-15.4
				c-4.4-7.5-7.1-12.5-8.2-14.9c4.4-9.3,9.9-18.9,16.5-28.8c0.3-0.4,0.4-0.9,0.4-1.5c0-1.9-1-3.2-2.9-4.1c-2.6-0.3-4.7-0.3-6.4,0.3
				c-2.3,2.6-4.7,6.1-7.3,10.7c-3.7,6.8-5.8,10.5-6.3,11.1c-0.3-0.3-2.1-2.7-5.5-7.4c-2.4-3.2-4.8-4.8-7.3-4.8
				c-0.9,0-1.9,0.2-2.8,0.5c-2.6,0.9-3.8,2.2-3.8,3.8c0,0.4,0.2,0.9,0.6,1.3c6.4,6.5,10.8,12.7,13.4,18.4
				c-7.1,12.2-13,25.2-17.7,39.2c-0.2,0.4-1,2.2-2.4,5.4c-1,2.2-1.5,4-1.5,5.4c0,0.8,0.1,1.5,0.4,2.3
				C775.3,523,777.9,523.8,782.5,523.3z"/>
			<path fill="#FFFFFF" d="M861.7,490.2c10.7-2,17.3-3.1,19.8-3.2c6.5-0.8,11.3-1.3,14.5-1.5c4.8-0.3,8.3-0.3,10.7-0.3
				c0.7-0.1,1.1-0.7,1.3-1.8c0.2-1.1,0.3-2.2,0.5-3.2c0.5-2.2,0.2-3.7-0.9-4.6c-1.1-0.8-2.6-1.3-4.3-1.3c-0.7,0-1.7,0.1-3.1,0.3
				c-1.4,0.2-2.5,0.3-3.3,0.3c-7.6,0-13.7,0.4-18.5,1.1c-6.1,1.2-12.2,2.4-18.2,3.6c-0.4,0.1-0.7,0.2-0.9,0.4
				c-0.1,0.4-0.2,0.9-0.4,1.3c-1.2,3.3-1,6,0.6,7.9C860.2,490,860.9,490.3,861.7,490.2z"/>
			<path fill="#FFFFFF" d="M946.8,541.9c1,0.6,2,1.2,3.1,1.7c0.8,0.4,1.5,0.6,2.3,0.6c2.5,0,5.1-1.6,7.9-4.7
				c7.4-8.2,12.5-15.1,15.4-20.9c3.8-7.7,6-11.9,6.4-12.9c2-4.6,2.9-8.7,2.9-12.4c0-4.8-1.7-9.8-5.1-14.9c-1.5-2.3-3.9-3.9-7.1-4.7
				c-2.7-0.4-5.4-0.8-8-1.3c0.6-0.9,4.1-5.1,10.5-12.5c4.3-4.9,6.5-9.4,6.5-13.4c0-0.6,0-1.2-0.1-1.9c-0.5-3.2-3.4-4.8-8.7-4.8
				c-2.6,0-5.4,0.3-8.4,1c-10.2,2.4-15.7,3.7-16.5,3.8c0,0.9,0,1.9,0,2.8c0.1,1.1,0.4,2,0.9,2.6c1.6,2,3.7,2.9,6.3,2.9
				c1.2,0,3.4-0.4,6.5-1.1c2.7-0.7,4.8-0.9,6.3-0.8c-8.1,11-14.3,19.1-18.6,24.4c-0.8,1-1.1,2-1.1,2.8c0,1,0.8,2.1,2.4,3.3
				c2.1,1.5,3.4,2.6,3.8,3.3c7.7-2,12.7-2.8,15.2-2.6c2.5,0.3,3.8,1.8,4.1,4.7c0.2,1.9,0.3,3.7,0.3,5.4c0,6.7-1.5,13-4.6,18.8
				c-1.9,3.5-5.9,9-12,16.5c-0.7,0.8-3.2,2.6-7.7,5.4c-3.1,1.9-4.5,4.1-4.3,6.6C945.2,540.5,945.8,541.3,946.8,541.9z"/>
			<path fill="#FFFFFF" d="M993.5,523.3c2.8-4.2,5.9-11,9.2-20.4c3.4-9.4,6.5-16.3,9.5-20.7c1.5,1.5,3.1,4.2,4.8,8
				c1.8,4.3,3.2,7.2,4.2,8.5c2,2.6,4.5,4.1,7.7,4.3c0.8,0.1,1.5-0.4,2.3-1.5c0.8-1.1,1.5-1.6,2.2-1.7c-1-4.2-3.4-9.3-7-15.4
				c-4.4-7.5-7.1-12.5-8.2-14.9c4.4-9.3,9.9-18.9,16.5-28.8c0.3-0.4,0.4-0.9,0.4-1.5c0-1.9-1-3.2-2.9-4.1c-2.6-0.3-4.7-0.3-6.4,0.3
				c-2.3,2.6-4.7,6.1-7.3,10.7c-3.7,6.8-5.8,10.5-6.3,11.1c-0.3-0.3-2.1-2.7-5.5-7.4c-2.4-3.2-4.8-4.8-7.3-4.8
				c-0.9,0-1.9,0.2-2.8,0.5c-2.6,0.9-3.8,2.2-3.8,3.8c0,0.4,0.2,0.9,0.6,1.3c6.4,6.5,10.8,12.7,13.4,18.4
				c-7.1,12.2-13,25.2-17.7,39.2c-0.2,0.4-1,2.2-2.4,5.4c-1,2.2-1.5,4-1.5,5.4c0,0.8,0.1,1.5,0.4,2.3
				C986.2,523,988.9,523.8,993.5,523.3z"/>
			<path fill="#FFFFFF" d="M1072.7,490.2c10.7-2,17.3-3.1,19.8-3.2c6.5-0.8,11.3-1.3,14.5-1.5c4.8-0.3,8.3-0.3,10.7-0.3
				c0.7-0.1,1.1-0.7,1.3-1.8c0.2-1.1,0.3-2.2,0.5-3.2c0.5-2.2,0.2-3.7-0.9-4.6c-1.1-0.8-2.6-1.3-4.3-1.3c-0.7,0-1.7,0.1-3.1,0.3
				c-1.4,0.2-2.5,0.3-3.3,0.3c-7.6,0-13.7,0.4-18.5,1.1c-6.1,1.2-12.2,2.4-18.2,3.6c-0.4,0.1-0.7,0.2-0.9,0.4
				c-0.1,0.4-0.2,0.9-0.4,1.3c-1.2,3.3-1,6,0.6,7.9C1071.2,490,1071.9,490.3,1072.7,490.2z"/>
			<path fill="#FFFFFF" d="M1173.6,484.9c1.3,0,2.8-0.6,4.7-1.7c1.9-1.1,3.2-1.7,4.1-1.8c0.5-2,1.8-4,3.8-6c0.3,2,0.4,3.9,0.4,5.9
				c0,4.5-0.8,9.4-2.3,14.8c-0.6,2-2.2,6.5-4.7,13.8c-1.9,5.3-3.6,9.1-5.2,11.5c-2.7,4.2-6,6.2-9.7,6c-0.4,0-1.1-0.1-2.1-0.3
				c-1-0.2-1.7-0.3-2.1-0.3c-1,0-1.6,0.4-1.8,1.1c-0.4,1.6,0.7,3.3,3.4,5.1c2.5,1.6,5.2,2.4,8.2,2.4c2.2,0,4.4-0.5,6.5-1.5
				c2.1-1,4.2-3.3,6.3-7c10.1-18,14.9-34.8,14.3-50.3c-0.2-5.3-0.3-10.5-0.4-15.8c-0.6-6.1-2.3-10.9-5-14.3c-0.5,0.1-1,0.1-1.5,0.1
				c-1.4,0-2.9-0.4-4.3-1.3c-1.4-0.8-2.7-1.7-4-2.6c-0.9-0.2-1.7-0.3-2.6-0.3c-6.1,0-11.3,3.5-15.6,10.6c-3.9,6.5-5.9,12.1-5.9,17
				c0,3.7,1.1,7,3.3,9.7C1163.9,483.1,1168,484.8,1173.6,484.9z M1169.4,466.6c3.2-7.1,6.2-11.4,8.9-12.9c0.2-1.2,0.6-1.8,1.3-1.8
				c0.3,0,0.9,0.1,1.7,0.4c0.8,0.3,1.4,0.4,1.8,0.4c0.5,0,0.9-0.1,1.3-0.4c0,0.2,0.1,0.6,0.3,1.3c0.1,0.5,0.1,0.9,0,1.3
				c-0.2,5.1-2.8,10.8-7.9,17.1c-2.4,2.4-4.6,3.8-6.6,4.3c-0.9-1.5-1.4-3.4-1.4-5.7C1168.6,469,1168.9,467.7,1169.4,466.6z"/>
			<path fill="#FFFFFF" d="M854.9,681.5c0.5-1.1,0.4-2.3-0.4-3.4c-1.4-2.1-4.7-3.2-10.1-3.2c-0.2-2-0.3-4-0.3-6.1
				c0-4.8,0.7-11.9,2-21.1c1.3-9.2,2-16.3,2-21.2c0-1.9-0.1-3.8-0.3-5.7c-0.2-2-1.7-2.9-4.6-2.9c-2.4,0-4.1,1.1-5.2,3.2
				c-1.1,2.1-2,4.2-2.9,6.3c-3.2,5.9-7.5,14.7-12.8,26.6c-5.3,11.9-9.4,20.6-12.5,26.2c-1.9,3.4-2.8,5.4-2.8,6.1
				c0,1.4,1,2.4,2.9,3.2c1.4,0.5,3,0.8,4.6,0.8c1.7,0,4.4-0.4,8-1.1c3.7-0.8,6.4-1.1,8.2-1.1c0.8,0,1.7,0,2.4,0.1
				c0.4,1.9,0.6,3.8,0.6,5.9c0,2.1-0.3,5.2-0.9,9.2c-0.6,4-0.9,7-0.9,8.9c0,2.6,0.4,5.1,1.1,7.3c0.6,1.7,2.5,2.6,5.7,2.6
				c2-0.3,3.1-1.3,3.2-2.9c0.1-1.6,0.2-7.1,0.4-16.6c0.2-7,0.6-12.5,1.4-16.6c0.3-1.2,1.3-1.8,3.2-1.9c1.4-0.1,2.8-0.1,4.2-0.1
				C853.2,683.4,854.4,682.7,854.9,681.5z M833.6,665.1c-0.2,5-0.3,8.7-0.3,11c-0.6,0.1-2.3,0.6-5,1.4c-2.2,0.7-4,1.1-5.5,1.1
				c0.9-3.6,2.6-7.7,4.8-12.2c2-4,4.1-8,6.3-11.9C834,656.7,833.9,660.2,833.6,665.1z"/>
			<path fill="#FFFFFF" d="M899.5,611.6c-2.6-0.3-4.7-0.3-6.4,0.3c-2.3,2.6-4.7,6.1-7.3,10.7c-3.7,6.8-5.8,10.5-6.3,11.1
				c-0.3-0.3-2.1-2.7-5.5-7.4c-2.4-3.2-4.8-4.8-7.3-4.8c-0.9,0-1.9,0.2-2.8,0.5c-2.6,0.9-3.8,2.2-3.8,3.8c0,0.4,0.2,0.9,0.6,1.3
				c6.4,6.5,10.8,12.7,13.4,18.4c-7.1,12.2-13,25.2-17.7,39.2c-0.2,0.4-1,2.2-2.4,5.4c-1,2.2-1.5,4-1.5,5.4c0,0.8,0.1,1.5,0.4,2.3
				c0.7,1.9,3.3,2.6,7.9,2.2c2.8-4.2,5.9-11,9.2-20.4c3.4-9.4,6.5-16.3,9.5-20.7c1.5,1.5,3.1,4.2,4.8,8c1.8,4.3,3.2,7.2,4.2,8.5
				c2,2.6,4.5,4.1,7.7,4.3c0.8,0.1,1.5-0.4,2.3-1.5c0.8-1.1,1.5-1.6,2.2-1.7c-1-4.2-3.4-9.3-7-15.4c-4.4-7.5-7.1-12.5-8.2-14.9
				c4.4-9.3,9.9-18.9,16.5-28.8c0.3-0.4,0.4-0.9,0.4-1.5C902.5,613.8,901.5,612.5,899.5,611.6z"/>
			<path fill="#FFFFFF" d="M986,652.1c-1.1-0.8-2.6-1.3-4.3-1.3c-0.7,0-1.7,0.1-3.1,0.3c-1.4,0.2-2.5,0.3-3.3,0.3
				c-7.6,0-13.7,0.4-18.5,1.1c-6.1,1.2-12.2,2.4-18.2,3.6c-0.4,0.1-0.7,0.2-0.9,0.4c-0.1,0.4-0.2,0.9-0.4,1.3c-1.2,3.3-1,6,0.6,7.9
				c0.7,0.8,1.4,1.1,2.2,0.9c10.7-2,17.3-3.1,19.8-3.2c6.5-0.8,11.3-1.3,14.5-1.5c4.8-0.3,8.3-0.3,10.7-0.3c0.7-0.1,1.1-0.7,1.3-1.8
				c0.2-1.1,0.3-2.2,0.5-3.2C987.4,654.5,987.1,652.9,986,652.1z"/>
			<path fill="#FFFFFF" d="M1064.3,637.4c-0.6-6.1-2.3-10.9-5-14.3c-0.5,0.1-1,0.1-1.5,0.1c-1.4,0-2.9-0.4-4.3-1.3
				c-1.4-0.8-2.7-1.7-4-2.6c-0.9-0.2-1.7-0.3-2.6-0.3c-6.1,0-11.3,3.5-15.6,10.6c-3.9,6.5-5.9,12.1-5.9,17c0,3.7,1.1,7,3.3,9.7
				c2.5,3.1,6.5,4.8,12.1,5c1.3,0,2.8-0.6,4.7-1.7c1.9-1.1,3.2-1.7,4.1-1.8c0.5-2,1.8-4,3.8-6c0.3,2,0.4,3.9,0.4,5.9
				c0,4.5-0.8,9.4-2.3,14.8c-0.6,2-2.2,6.5-4.7,13.8c-1.9,5.3-3.6,9.1-5.2,11.5c-2.7,4.2-6,6.2-9.7,6c-0.4,0-1.1-0.1-2.1-0.3
				c-1-0.2-1.7-0.3-2.1-0.3c-1,0-1.6,0.4-1.8,1.1c-0.4,1.6,0.7,3.3,3.4,5.1c2.5,1.6,5.2,2.4,8.2,2.4c2.2,0,4.4-0.5,6.5-1.5
				c2.1-1,4.2-3.3,6.3-7c10.1-18,14.9-34.8,14.3-50.3C1064.6,647.9,1064.4,642.7,1064.3,637.4z M1052,631.4
				c-0.2,5.1-2.8,10.8-7.9,17.1c-2.4,2.4-4.6,3.8-6.6,4.3c-0.9-1.5-1.4-3.4-1.4-5.7c0-1.6,0.3-3,0.8-4.1c3.2-7.1,6.2-11.4,8.9-12.9
				c0.2-1.2,0.6-1.8,1.3-1.8c0.3,0,0.9,0.1,1.7,0.4c0.8,0.3,1.4,0.4,1.8,0.4c0.5,0,0.9-0.1,1.3-0.4c0,0.2,0.1,0.6,0.3,1.3
				C1052.1,630.6,1052.1,631.1,1052,631.4z"/>
			<path fill="#FFFFFF" d="M1231.4,556.3L710,571c-3,0.1-5.3,2.6-5.2,5.5c0.1,2.9,2.5,5.2,5.4,5.2c0.1,0,0.1,0,0.2,0l521.4-14.6
				c3-0.1,5.3-2.6,5.2-5.5C1236.8,558.6,1234.3,556.2,1231.4,556.3z"/>
		</g>
		<g>
			<path fill="#8A92A9" d="M1246.1,1232.1H871.3c-8,0-14.4,6.4-14.4,14.4l0,0c0,8,6.4,14.4,14.4,14.4h374.8c8,0,14.4-6.4,14.4-14.4
				l0,0C1260.5,1238.5,1254,1232.1,1246.1,1232.1z"/>
			<path fill="#E9EBF4" d="M876,1232.1H640.3c-8,0-14.4,6.4-14.4,14.4l0,0c0,8,6.4,14.4,14.4,14.4H876c8,0,14.4-6.4,14.4-14.4l0,0
				C890.4,1238.5,884,1232.1,876,1232.1z"/>
			<path fill="#E9EBF4" d="M1001.9,912.6h364c9.7,0,16.1,10.2,11.8,18.9l-143.3,293.3c-2.2,4.5-6.8,7.4-11.8,7.4h-364
				c-9.7,0-16.1-10.2-11.8-18.9l143.3-293.3C992.3,915.4,996.9,912.6,1001.9,912.6z"/>
			<path fill="#ABB1CA" d="M1017.2,912.6h364c9.7,0,16.1,10.2,11.8,18.9l-143.3,293.3c-2.2,4.5-6.8,7.4-11.8,7.4h-364
				c-9.7,0-16.1-10.2-11.8-18.9l143.3-293.3C1007.6,915.4,1012.2,912.6,1017.2,912.6z"/>
			<path fill="#E9EBF4" d="M1181.1,1072.7c-9.7,27.8-35.4,50.3-57.3,50.3c-21.9,0-31.8-22.5-22.1-50.3c9.7-27.8,35.4-50.3,57.3-50.3
				C1181,1022.3,1190.9,1044.9,1181.1,1072.7z"/>
			<path fill="#6A7080" d="M705,1244h-50c-1.7,0-3,1.3-3,3s1.3,3,3,3h50c1.7,0,3-1.3,3-3S706.6,1244,705,1244z"/>
			<path fill="#6A7080" d="M849.5,1244H733.1c-1.7,0-3,1.3-3,3s1.3,3,3,3h116.3c1.7,0,3-1.3,3-3S851.1,1244,849.5,1244z"/>
		</g>
	</g>
</g>
</svg>
